<svg width="71" height="71" viewBox="0 0 71 71" fill="none" xmlns="http://www.w3.org/2000/svg">
<rect y="0.556519" width="70" height="70" rx="35" transform="rotate(-0.159432 0 0.556519)" fill="white"/>
<path d="M33.057 50.8327C28.8437 50.8444 25.973 49.4124 24.445 46.5366C21.7047 48.8376 19.7479 49.9897 18.5746 49.993C18.0146 49.9945 17.5739 49.7291 17.2524 49.1966C16.9576 48.6641 16.8092 48.0645 16.8074 47.3979C16.8029 45.7979 17.4111 43.9295 18.6318 41.7928C19.1625 40.858 19.7468 40.003 20.3847 39.2279C21.0225 38.4528 21.7414 38.0641 22.5414 38.0619C23.3147 38.0597 23.9032 38.6981 24.3068 39.977L25.5174 43.8136C25.9428 43.3591 26.408 42.8111 26.9129 42.1697C27.4443 41.5016 28.0289 40.7266 28.6664 39.8448L32.213 35.035C36.5705 29.3428 39.4286 26.2282 40.7871 25.6911C41.2665 25.5031 41.7463 25.4084 42.2263 25.4071C42.7596 25.4056 43.1866 25.5244 43.5073 25.7635C43.8545 25.9759 44.0286 26.2287 44.0294 26.522C44.0307 27.002 43.6448 27.2831 42.8717 27.3653C42.073 27.8208 40.5167 29.1718 38.203 31.4183C37.1392 32.4612 36.275 33.3303 35.6102 34.0255C34.9721 34.6939 34.5335 35.2018 34.2945 35.5492C31.3194 39.7175 28.5683 42.9251 26.0412 45.1722C27.6769 48.3943 30.1213 50.0008 33.3747 49.9918C34.6013 49.9884 35.8406 49.7183 37.0924 49.1814C38.371 48.6712 39.5424 47.9879 40.6067 47.1316C41.6977 46.2753 42.575 45.3262 43.2388 44.2843C43.9025 43.2158 44.2329 42.1615 44.23 41.1215C44.227 40.0282 43.8376 39.0426 43.0618 38.1648C42.286 37.2869 41.3376 36.6629 40.2166 36.2927C40.2166 36.2927 40.0165 36.2666 39.6163 36.2144C39.2162 36.1621 38.6026 36.0838 37.7757 35.9795C36.5219 35.823 35.8945 35.5714 35.8936 35.2247C35.8929 34.9847 36.039 34.771 36.3318 34.5835C36.6513 34.3959 36.971 34.3017 37.291 34.3008C37.531 34.3002 37.8112 34.3527 38.1315 34.4585C38.4517 34.5643 38.732 34.6702 38.9723 34.7761C39.2392 34.8554 39.3727 34.895 39.3727 34.895C39.5861 34.9211 39.8261 34.9471 40.0929 34.973C40.3596 34.9723 40.6262 34.9715 40.8929 34.9708C42.6529 34.9659 44.2521 34.6815 45.6905 34.1175C47.0756 33.5536 48.0868 32.7774 48.7241 31.789C49.3613 30.8006 49.6781 29.653 49.6745 28.3463C49.6708 27.013 49.2412 25.9609 48.3857 25.1899C47.5569 24.4189 46.4487 23.8753 45.0611 23.5592C43.7002 23.2163 42.2197 23.0471 40.6197 23.0515C37.4997 23.0602 34.5277 23.5218 31.7035 24.4363C28.9061 25.3508 26.4836 26.8642 24.4361 28.9766C22.8673 30.6076 22.0845 31.9698 22.0875 33.0631C22.0897 33.8365 22.2915 34.4892 22.693 35.0214C22.8 35.1545 22.9204 35.2875 23.0541 35.4204C23.1878 35.5534 23.3481 35.6863 23.5352 35.8191C23.6687 35.8987 23.5888 35.939 23.2955 35.9398C21.6411 35.571 20.8114 34.4667 20.8063 32.6267C20.8012 30.7867 21.7297 29.0508 23.5918 27.4189C25.0283 26.1616 26.6655 25.1437 28.5033 24.3652C30.3678 23.5867 32.3263 23.0213 34.3786 22.6689C36.4577 22.3164 38.5105 22.1374 40.5372 22.1317C41.9772 22.1277 43.3641 22.2305 44.698 22.4402C46.032 22.6498 47.233 23.0064 48.301 23.5101C49.369 23.9872 50.2108 24.6248 50.8264 25.4231C51.4686 26.2213 51.7913 27.2071 51.7946 28.3804C51.7992 30.0338 51.3629 31.355 50.4856 32.3441C49.6084 33.3332 48.4238 34.0965 46.932 34.634C45.1737 35.2522 43.2813 35.5775 41.2547 35.6098C42.3748 35.66 43.349 35.9506 44.1771 36.4817C45.0319 37.0126 45.6872 37.7041 46.1429 38.5562C46.6253 39.4082 46.8679 40.3409 46.8707 41.3542C46.8745 42.7142 46.4646 43.982 45.6412 45.1576C44.8444 46.3065 43.7672 47.3095 42.4096 48.1666C41.0519 48.9971 39.5604 49.6412 37.935 50.0991C36.3096 50.5836 34.6837 50.8281 33.057 50.8327ZM19.092 49.0715C19.9454 49.0691 21.582 47.8513 24.0019 45.4178L23.8814 45.2582C22.8049 41.7145 21.9466 39.9435 21.3067 39.9453C21.28 39.9454 21.2134 39.9723 21.1069 40.0259C19.1415 42.8847 18.1612 45.1808 18.166 46.9141C18.1671 47.2874 18.235 47.7406 18.3698 48.2735C18.5313 48.8064 18.772 49.0724 19.092 49.0715Z" fill="black"/>
</svg>
